<svg width="96" height="558" viewBox="0 0 96 558" fill="none" xmlns="http://www.w3.org/2000/svg">
<path d="M44 512V0" stroke="#E5ECF4" stroke-width="15"/>
<circle cx="48" cy="170" r="48" fill="#FCB72B"/>
<path fill-rule="evenodd" clip-rule="evenodd" d="M53.7996 146H33.0107C30.8039 146.003 29.0156 147.791 29.0128 149.998V189.977C29.0156 192.183 30.8039 193.972 33.0107 193.974H53V192.544C52.9962 188.942 54.0625 185.419 56.064 182.425C56.2759 182.107 56.2333 181.685 55.964 181.416L50.367 175.818C49.8497 175.301 49.5755 174.588 49.6116 173.857C49.648 173.126 49.9916 172.445 50.5573 171.981C51.6469 171.148 53.1879 171.267 54.137 172.256L62.0296 180.149L63.1602 179.018L57.7975 173.654V149.998C57.7947 147.791 56.0064 146.003 53.7996 146ZM56.1983 172.055L55.2676 171.124C53.7336 169.557 51.2665 169.394 49.5395 170.746C48.626 171.496 48.0717 172.599 48.0139 173.78C47.9563 174.962 48.4001 176.112 49.2364 176.949L54.3777 182.091C52.4603 185.18 51.4321 188.739 51.4065 192.375H33.0107C31.6862 192.375 30.612 191.301 30.612 189.977V187.578H50.6013V185.979H30.612V152.397H56.1983V172.055ZM30.612 150.797H56.1983V149.998C56.1983 148.673 55.1241 147.599 53.7996 147.599H33.0107C31.6862 147.599 30.612 148.673 30.612 149.998V150.797ZM60.155 164.6L59.0768 165.779L63.9804 170.274C65.1348 171.336 65.7928 172.833 65.7932 174.401V193.974H67.3923V174.401C67.3904 172.384 66.5444 170.461 65.0592 169.095L60.155 164.6ZM33.8103 160.392H37.0086C37.8919 160.392 38.6077 159.677 38.6077 158.793V155.595C38.6077 154.712 37.8919 153.996 37.0086 153.996H33.8103C32.9269 153.996 32.2111 154.712 32.2111 155.595V158.793C32.2111 159.677 32.9269 160.392 33.8103 160.392ZM33.8103 155.595H37.0086V158.793H33.8103V155.595ZM45.0043 160.392H41.806C40.9227 160.392 40.2068 159.677 40.2068 158.793V155.595C40.2068 154.712 40.9227 153.996 41.806 153.996H45.0043C45.8876 153.996 46.6034 154.712 46.6034 155.595V158.793C46.6034 159.677 45.8876 160.392 45.0043 160.392ZM45.0043 155.595H41.806V158.793H45.0043V155.595ZM49.8017 160.392H53C53.8834 160.392 54.5992 159.677 54.5992 158.793V155.595C54.5992 154.712 53.8834 153.996 53 153.996H49.8017C48.9184 153.996 48.2026 154.712 48.2026 155.595V158.793C48.2026 159.677 48.9184 160.392 49.8017 160.392ZM49.8017 155.595H53V158.793H49.8017V155.595ZM37.0086 168.388H33.8103C32.9269 168.388 32.2111 167.672 32.2111 166.789V163.591C32.2111 162.707 32.9269 161.991 33.8103 161.991H37.0086C37.8919 161.991 38.6077 162.707 38.6077 163.591V166.789C38.6077 167.672 37.8919 168.388 37.0086 168.388ZM37.0086 163.591H33.8103V166.789H37.0086V163.591ZM33.8103 176.384H37.0086C37.8919 176.384 38.6077 175.668 38.6077 174.785V171.586C38.6077 170.703 37.8919 169.987 37.0086 169.987H33.8103C32.9269 169.987 32.2111 170.703 32.2111 171.586V174.785C32.2111 175.668 32.9269 176.384 33.8103 176.384ZM33.8103 171.586H37.0086V174.785H33.8103V171.586ZM45.0043 168.388H41.806C40.9227 168.388 40.2068 167.672 40.2068 166.789V163.591C40.2068 162.707 40.9227 161.991 41.806 161.991H45.0043C45.8876 161.991 46.6034 162.707 46.6034 163.591V166.789C46.6034 167.672 45.8876 168.388 45.0043 168.388ZM45.0043 163.591H41.806V166.789H45.0043V163.591ZM49.8017 168.388H53C53.8834 168.388 54.5992 167.672 54.5992 166.789V163.591C54.5992 162.707 53.8834 161.991 53 161.991H49.8017C48.9184 161.991 48.2026 162.707 48.2026 163.591V166.789C48.2026 167.672 48.9184 168.388 49.8017 168.388ZM49.8017 163.591H53V166.789H49.8017V163.591ZM45.0043 176.384H41.806C40.9227 176.384 40.2068 175.668 40.2068 174.785V171.586C40.2068 170.703 40.9227 169.987 41.806 169.987H45.0043C45.8876 169.987 46.6034 170.703 46.6034 171.586V174.785C46.6034 175.668 45.8876 176.384 45.0043 176.384ZM45.0043 171.586H41.806V174.785H45.0043V171.586ZM33.8103 184.38H37.0086C37.8919 184.38 38.6077 183.664 38.6077 182.78V179.582C38.6077 178.699 37.8919 177.983 37.0086 177.983H33.8103C32.9269 177.983 32.2111 178.699 32.2111 179.582V182.78C32.2111 183.664 32.9269 184.38 33.8103 184.38ZM33.8103 179.582H37.0086V182.78H33.8103V179.582ZM45.0043 184.38H41.806C40.9227 184.38 40.2068 183.664 40.2068 182.78V179.582C40.2068 178.699 40.9227 177.983 41.806 177.983H45.0043C45.8876 177.983 46.6034 178.699 46.6034 179.582V182.78C46.6034 183.664 45.8876 184.38 45.0043 184.38ZM45.0043 179.582H41.806V182.78H45.0043V179.582ZM44.2047 189.177H42.6056V190.776H44.2047V189.177Z" fill="#495567"/>
<circle cx="48" cy="340" r="48" fill="#FCB72B"/>
<path d="M45.0698 354.301C44.8521 354.301 44.6389 354.39 44.4852 354.543C44.3314 354.697 44.2429 354.911 44.2429 355.128C44.2429 355.345 44.3314 355.559 44.4852 355.713C44.6389 355.866 44.8521 355.955 45.0698 355.955C45.2872 355.955 45.5003 355.866 45.6544 355.713C45.8082 355.559 45.8967 355.346 45.8967 355.128C45.8967 354.911 45.8082 354.697 45.6544 354.543C45.5003 354.39 45.2872 354.301 45.0698 354.301Z" fill="black"/>
<path fill-rule="evenodd" clip-rule="evenodd" d="M61.5391 340.419L59.6121 331.713C60.1321 331.643 60.5908 331.378 60.9134 330.995C61.2943 331.233 61.7435 331.371 62.2248 331.371H63.8786C64.3353 331.371 64.7054 331.001 64.7054 330.544V327.237C64.7054 326.78 64.3353 326.41 63.8786 326.41H62.2248C61.7293 326.41 61.2674 326.557 60.8795 326.808C60.501 326.38 59.9483 326.11 59.3333 326.11H54.4522C53.5753 326.11 52.8246 326.66 52.5258 327.433H50.5659C49.3805 327.433 48.416 328.397 48.416 329.583C48.416 330.768 49.3805 331.732 50.5659 331.732H54.822V333.399C54.822 333.856 55.1922 334.226 55.6489 334.226C56.1056 334.226 56.4758 333.856 56.4758 333.399V331.732H57.9228L59.9984 341.111L56.0701 348.107C55.6408 348.869 54.8314 349.342 53.957 349.342H44.1505C43.74 345.899 40.8046 343.221 37.2532 343.221C35.6818 343.221 34.1993 343.733 32.9658 344.701L32.9609 344.705C31.4922 345.86 30.5691 347.518 30.354 349.342H28.6557C28.7636 343.398 33.6328 338.596 39.6021 338.596H45.4677C45.9306 338.596 46.3075 338.972 46.3075 339.436V346.862C46.3075 347.318 46.6776 347.689 47.1344 347.689H51.5342C53.3291 347.689 54.9832 346.712 55.8508 345.142C56.2523 344.415 56.4651 343.592 56.4658 342.762L56.47 340.015C56.4706 339.558 56.1008 339.188 55.6441 339.187H55.6431C55.187 339.187 54.8169 339.556 54.8162 340.013L54.812 342.76C54.8117 343.312 54.6702 343.859 54.4034 344.342C53.8265 345.386 52.7271 346.034 51.5342 346.034H47.9612V339.435C47.9612 339.012 47.8547 338.613 47.6676 338.263C48.4105 337.834 48.9118 337.031 48.9118 336.114C48.9118 334.746 47.7988 333.633 46.4312 333.633H43.4131C43.1231 333.633 42.845 333.683 42.5862 333.775V326.522C42.5862 325.154 41.4732 324.041 40.1056 324.041H34.7713C30.9044 324.041 27.6886 326.88 27.0975 330.583C27.0727 330.662 27.0591 330.746 27.0591 330.833C27.0591 330.835 27.0593 330.838 27.0594 330.84C27.0596 330.843 27.0598 330.845 27.0598 330.847C27.0203 331.164 27 331.486 27 331.813V336.114C27 337.356 27.9176 338.388 29.1105 338.567L30.9415 340.398C28.5155 342.696 27 345.946 27 349.544V350.169C27 350.626 27.3702 350.996 27.8269 350.996H32.4738C32.4632 351.049 32.4574 351.105 32.4574 351.161C32.4574 352.361 32.9015 353.459 33.6328 354.301H27.8269C27.3702 354.301 27 354.671 27 355.128C27 355.585 27.3702 355.955 27.8269 355.955H37.1576L37.1852 355.956C37.2079 355.956 37.2305 355.957 37.2532 355.957C39.8976 355.957 42.0491 353.806 42.0491 351.161C42.0491 351.105 42.0433 351.049 42.0326 350.996H53.957C55.259 350.996 56.4758 350.372 57.2384 349.34H58.2855C58.0501 349.913 57.9251 350.53 57.9251 351.161C57.9251 352.361 58.3692 353.459 59.1005 354.301H48.3773C47.9205 354.301 47.5504 354.671 47.5504 355.128C47.5504 355.585 47.9205 355.955 48.3773 355.955H62.6253C62.6573 355.956 62.689 355.957 62.7209 355.957C65.3653 355.957 67.5168 353.806 67.5168 351.161C67.5168 350.53 67.3918 349.913 67.1563 349.34H68.509C68.9658 349.34 69.3359 348.97 69.3359 348.513C69.3359 344.148 65.8653 340.579 61.5391 340.419ZM43.4131 335.287H46.4312C46.887 335.287 47.2581 335.658 47.2581 336.114C47.2581 336.57 46.887 336.941 46.4312 336.941H43.4131C42.957 336.941 42.5862 336.57 42.5862 336.114C42.5862 335.658 42.957 335.287 43.4131 335.287ZM28.656 331.711L28.656 331.711C28.6549 331.745 28.6537 331.779 28.6537 331.813V336.114C28.6537 336.57 29.0245 336.941 29.4803 336.941H29.4809H40.1053C40.5614 336.941 40.9322 336.57 40.9322 336.114V326.522C40.9322 326.066 40.5614 325.695 40.1053 325.695H34.7713C32.0268 325.695 29.699 327.512 28.9264 330.006H37.7057C38.1625 330.006 38.5326 330.376 38.5326 330.833C38.5326 331.29 38.1625 331.66 37.7057 331.66H28.6576L28.656 331.711ZM31.4771 338.595H33.3692C32.9719 338.821 32.5885 339.07 32.2196 339.337L31.4771 338.595ZM37.2852 354.303C39.0029 354.285 40.3953 352.883 40.3953 351.161C40.3953 351.105 40.4012 351.049 40.4118 350.996H34.0946C34.1053 351.049 34.1111 351.105 34.1111 351.161C34.1111 352.862 35.4693 354.25 37.1579 354.301H37.2532C37.2593 354.301 37.2654 354.301 37.2715 354.302C37.2761 354.302 37.2806 354.302 37.2852 354.303ZM32.0226 349.342C32.2274 348.029 32.9173 346.842 33.9829 346.005C33.9855 346.003 33.9877 346.001 33.9903 346C34.9289 345.264 36.0572 344.875 37.2532 344.875C39.8915 344.875 42.0849 346.814 42.4832 349.342H32.0226ZM63.0517 328.064H62.2248C61.7687 328.064 61.3979 328.435 61.3979 328.891C61.3979 329.347 61.7687 329.718 62.2248 329.718H63.0517V328.064ZM50.0698 329.583C50.0698 329.309 50.2923 329.086 50.5659 329.086H52.3876V329.668C52.3876 329.809 52.4018 329.946 52.4286 330.079H50.5659C50.2923 330.079 50.0698 329.856 50.0698 329.583ZM54.4522 330.079H55.6489H59.3333C59.5598 330.079 59.7442 329.895 59.7442 329.668V328.174C59.7442 327.948 59.5598 327.763 59.3333 327.763H54.4522C54.2258 327.763 54.0413 327.948 54.0413 328.174V329.668C54.0413 329.895 54.2258 330.079 54.4522 330.079ZM65.863 351.161C65.863 352.883 64.4706 354.285 62.7529 354.303C62.7507 354.302 62.7484 354.302 62.7462 354.302C62.7438 354.302 62.7415 354.302 62.7392 354.302C62.7331 354.301 62.727 354.301 62.7209 354.301H62.6256C60.937 354.25 59.5788 352.862 59.5788 351.161C59.5788 350.504 59.7836 349.869 60.1609 349.34H65.281C65.6583 349.869 65.863 350.504 65.863 351.161ZM61.3563 342.07L58.2032 347.686H67.6292C67.2274 344.56 64.5762 342.129 61.3563 342.07Z" fill="#495567"/>
<path d="M55.6489 337.533C56.1056 337.533 56.4758 337.163 56.4758 336.707C56.4758 336.25 56.1056 335.88 55.6489 335.88H55.646C55.1893 335.88 54.8204 336.25 54.8204 336.707C54.8204 337.163 55.1922 337.533 55.6489 337.533V337.533Z" fill="black"/>
<circle cx="48" cy="510" r="48" fill="#FCB72B"/>
<path fill-rule="evenodd" clip-rule="evenodd" d="M64.1713 508H66C66.3682 508 66.6667 507.702 66.6667 507.333V502C66.6667 501.632 66.3682 501.333 66 501.333H59.7453L58.6667 499.176V496.667C58.6667 496.298 58.3682 496 58 496H54C53.6318 496 53.3333 496.298 53.3333 496.667V499.333C53.3333 499.702 53.6318 500 54 500H57.588L58.6667 502.157V506C58.6667 504.895 57.7712 504 56.6667 504C55.5621 504 54.6667 504.895 54.6667 506V504.667C54.6667 504.298 54.3682 504 54 504H48.7487L46.6667 503.479V492.667C46.6667 491.194 45.4728 490 44 490H41.3333C39.8606 490 38.6667 491.194 38.6667 492.667V500H35.3333C34.2288 500 33.3333 500.895 33.3333 502V504H28.6667C28.3971 504 28.154 504.162 28.0509 504.412C27.9477 504.661 28.0047 504.947 28.1953 505.138L29.724 506.667L28.1953 508.195C28.0047 508.386 27.9477 508.673 28.0509 508.922C28.154 509.171 28.3971 509.333 28.6667 509.333H35.3333C36.4379 509.333 37.3333 508.438 37.3333 507.333V505.333H38.6667V512H36.6667C34.3489 512.003 32.3844 513.706 32.0533 516H30C29.6318 516 29.3333 516.298 29.3333 516.667V519.333C29.3333 519.702 29.6318 520 30 520H32V521.333H28.6667C28.2985 521.333 28 521.632 28 522V524.667C28 525.035 28.2985 525.333 28.6667 525.333H36C36 527.911 38.0893 530 40.6667 530C43.244 530 45.3333 527.911 45.3333 525.333H57.3333C57.3333 527.911 59.4227 530 62 530C64.5773 530 66.6667 527.911 66.6667 525.333H67.3333C67.5366 525.333 67.7288 525.241 67.8554 525.082C67.982 524.923 68.0291 524.715 67.9833 524.517L64.1713 508ZM54.6667 506C54.6667 507.105 55.5621 508 56.6667 508C57.7712 508 58.6667 507.105 58.6667 506V520H56.6667V519.333C56.6667 518.229 55.7712 517.333 54.6667 517.333V510C54.6667 509.632 54.3682 509.333 54 509.333H46.6667V507.521L48.5047 507.98C48.5576 507.993 48.6121 508 48.6667 508H54C54.3682 508 54.6667 507.702 54.6667 507.333V506ZM57.3333 498.667H54.6667V497.333H57.3333V498.667ZM32 524V522.667H29.3333V524H32ZM32 518.667H30.6667V517.333H32V518.667ZM65.3333 502.667H64V506.667H65.3333V502.667ZM60 502.667H62.6667V506.667H60V502.667ZM55.3333 519.333C55.3333 518.965 55.0349 518.667 54.6667 518.667H52V520H55.3333V519.333ZM48.5047 505.313C48.5576 505.327 48.6121 505.333 48.6667 505.333H53.3333V506.667H48.7487L44 505.479V504.187L48.5047 505.313ZM41.3333 491.333C40.597 491.333 40 491.93 40 492.667V495.333H42V494C42 493.632 42.2985 493.333 42.6667 493.333H45.3333V492.667C45.3333 491.93 44.7364 491.333 44 491.333H41.3333ZM40 496.667H42.6667C43.0349 496.667 43.3333 496.368 43.3333 496V494.667H45.3333V496.171L40 497.771V496.667ZM45.3333 500.667V497.563L40 499.163V500.667H45.3333ZM45.3333 502V503.146L43.4953 502.687C43.2961 502.637 43.0851 502.681 42.9232 502.808C42.7613 502.934 42.6667 503.128 42.6667 503.333V506C42.6667 506.306 42.8747 506.572 43.1713 506.647L45.3333 507.187V509.333H40V502H45.3333ZM53.3333 517.333V510.667H40V512H51.3333C51.7015 512 52 512.298 52 512.667V517.333H53.3333ZM36 507.333C36 507.702 35.7015 508 35.3333 508H30.276L31.138 507.138C31.3983 506.878 31.3983 506.456 31.138 506.195L30.276 505.333H36V507.333ZM34.6667 502V504H38.6667V501.333H35.3333C34.9651 501.333 34.6667 501.632 34.6667 502ZM40.6667 528.667C38.8266 528.664 37.3355 527.173 37.3333 525.333H38.6667C38.6667 526.438 39.5621 527.333 40.6667 527.333C41.7712 527.333 42.6667 526.438 42.6667 525.333H44C43.9978 527.173 42.5067 528.664 40.6667 528.667ZM40.6667 526C41.0349 526 41.3333 525.702 41.3333 525.333H40C40 525.702 40.2985 526 40.6667 526ZM45.3333 524H36V517.333C36 516.965 36.2985 516.667 36.6667 516.667H44.6667C45.0349 516.667 45.3333 516.965 45.3333 517.333V524ZM46.6667 524H48V516.667C47.9978 514.827 46.5067 513.336 44.6667 513.333H36.6667C34.8266 513.336 33.3355 514.827 33.3333 516.667V524H34.6667V517.333C34.6667 516.229 35.5621 515.333 36.6667 515.333H44.6667C45.7712 515.333 46.6667 516.229 46.6667 517.333V524ZM47.9267 513.333H50.6667V520H49.3333V516.667C49.3335 515.411 48.8262 514.209 47.9267 513.333ZM62 528.667C60.16 528.664 58.6689 527.173 58.6667 525.333H60C60 526.438 60.8954 527.333 62 527.333C63.1046 527.333 64 526.438 64 525.333H65.3333C65.3311 527.173 63.84 528.664 62 528.667ZM62 526C62.3682 526 62.6667 525.702 62.6667 525.333H61.3333C61.3333 525.702 61.6318 526 62 526ZM60 524V519.333H61.3333V518H60V508H62.8L66.492 524H60ZM49.3333 524H58.6667V521.333H49.3333V524ZM64 518H62.6667V519.333H64V518ZM37.3333 518H38.6667V519.333H37.3333V518ZM41.3333 518H40V519.333H41.3333V518ZM42.6667 518H44V519.333H42.6667V518ZM56.6667 505.333C57.0349 505.333 57.3333 505.632 57.3333 506C57.3333 506.368 57.0349 506.667 56.6667 506.667C56.2985 506.667 56 506.368 56 506C56 505.632 56.2985 505.333 56.6667 505.333ZM28 494.667H36.6667V496H28V494.667ZM37.3333 497.333H29.3333V498.667H37.3333V497.333Z" fill="#495567"/>
</svg>
